<svg width="23" height="23" viewBox="0 0 23 23" fill="none" xmlns="http://www.w3.org/2000/svg">
<g clip-path="url(#clip0)">
<path d="M22.996 0.970015V0.921211C22.996 0.908715 22.9933 0.89675 22.9907 0.884932C22.9897 0.880404 22.9887 0.875897 22.9878 0.87139L22.9787 0.818519L22.9665 0.772765C22.9623 0.755218 22.9573 0.737907 22.9512 0.72091C22.9467 0.705349 22.9413 0.69007 22.935 0.675156C22.9289 0.658888 22.9228 0.64262 22.9156 0.626352C22.9085 0.610084 22.9014 0.59585 22.8933 0.579582C22.8912 0.575373 22.8892 0.571368 22.8873 0.567497C22.8819 0.556406 22.8769 0.546413 22.8709 0.535861C22.8655 0.526386 22.8592 0.516011 22.8529 0.505634C22.8497 0.500421 22.8465 0.495207 22.8435 0.490107L22.817 0.449437C22.8114 0.440746 22.8051 0.432433 22.7987 0.424036C22.7946 0.418682 22.7905 0.413293 22.7865 0.40775L22.754 0.368097C22.7438 0.355896 22.7326 0.343695 22.7214 0.33251L22.6818 0.29184L22.6686 0.277606L22.6472 0.260321C22.6334 0.247282 22.6188 0.23506 22.6035 0.223718L22.5649 0.194232L22.5211 0.164746L22.4774 0.13831L22.4327 0.113908L22.3859 0.0915397L22.3391 0.0722211L22.2914 0.0549365C22.2805 0.0508693 22.2697 0.047706 22.2588 0.0445426C22.2534 0.0429611 22.248 0.0413795 22.2426 0.039685L22.1927 0.0264675L22.1439 0.0173167C22.1265 0.0136139 22.1088 0.0108981 22.0911 0.00918243H22.0433C22.024 0.00816966 22.0046 0.00816966 21.9853 0.00918243H21.9569C21.9253 0.00918243 19.904 0.157629 17.1415 0.371147C17.0022 0.47994 16.7023 0.747346 16.7297 1.05441C16.7704 1.49263 17.4313 1.82409 17.9102 1.88611L19.5644 2.09963L13.2128 8.94645L10.496 6.22969C10.3966 6.13024 10.2781 6.05188 10.1477 5.99928C10.0173 5.94669 9.87762 5.92096 9.73703 5.92361C9.59644 5.92627 9.45783 5.95727 9.3295 6.01475C9.20117 6.07224 9.08576 6.15502 8.99018 6.25815L0.616192 15.7953C0.324383 16.2681 0.227792 16.749 0.375221 17.0469C0.428716 17.1539 0.507616 17.246 0.605008 17.3154C0.738964 17.3946 0.894257 17.4301 1.04933 17.417C1.19353 17.4172 1.33619 17.3875 1.46832 17.3297C1.60044 17.272 1.71916 17.1874 1.81698 17.0815L9.98558 8.3608L12.501 11.1955C12.6004 11.295 12.7189 11.3734 12.8494 11.426C12.9799 11.4786 13.1196 11.5043 13.2602 11.5015C13.4009 11.4988 13.5395 11.4676 13.6678 11.41C13.7961 11.3523 13.9114 11.2694 14.0068 11.166L20.9065 3.71525L21.1689 5.18955C21.2604 5.70402 21.5593 6.23172 21.9518 6.27442C22.3442 6.31713 22.6767 5.83518 22.7428 5.73758C22.7753 5.16819 22.999 1.02797 22.996 0.970015Z" fill="#8E8E8E"/>
<path d="M22.996 0.970015V0.921211C22.996 0.908715 22.9933 0.89675 22.9907 0.884932C22.9897 0.880404 22.9887 0.875897 22.9878 0.87139L22.9787 0.818519L22.9665 0.772765C22.9623 0.755218 22.9573 0.737907 22.9512 0.72091C22.9467 0.705349 22.9413 0.69007 22.935 0.675156C22.9289 0.658888 22.9228 0.64262 22.9156 0.626352C22.9085 0.610084 22.9014 0.59585 22.8933 0.579582C22.8912 0.575373 22.8892 0.571368 22.8873 0.567497C22.8819 0.556406 22.8769 0.546413 22.8709 0.535861C22.8655 0.526386 22.8592 0.516011 22.8529 0.505634C22.8497 0.500421 22.8465 0.495207 22.8435 0.490107L22.817 0.449437C22.8114 0.440746 22.8051 0.432433 22.7987 0.424036C22.7946 0.418682 22.7905 0.413293 22.7865 0.40775L22.754 0.368097C22.7438 0.355896 22.7326 0.343695 22.7214 0.33251L22.6818 0.29184L22.6686 0.277606L22.6472 0.260321C22.6334 0.247282 22.6188 0.23506 22.6035 0.223718L22.5649 0.194232L22.5211 0.164746L22.4774 0.13831L22.4327 0.113908L22.3859 0.0915397L22.3391 0.0722211L22.2914 0.0549365C22.2805 0.0508693 22.2697 0.047706 22.2588 0.0445426C22.2534 0.0429611 22.248 0.0413795 22.2426 0.039685L22.1927 0.0264675L22.1439 0.0173167C22.1265 0.0136139 22.1088 0.0108981 22.0911 0.00918243H22.0433C22.024 0.00816966 22.0046 0.00816966 21.9853 0.00918243H21.9569C21.9253 0.00918243 19.904 0.157629 17.1415 0.371147C17.0022 0.47994 16.7023 0.747346 16.7297 1.05441C16.7704 1.49263 17.4313 1.82409 17.9102 1.88611L19.5644 2.09963L13.2128 8.94645L10.496 6.22969C10.3966 6.13024 10.2781 6.05188 10.1477 5.99928C10.0173 5.94669 9.87762 5.92096 9.73703 5.92361C9.59644 5.92627 9.45783 5.95727 9.3295 6.01475C9.20117 6.07224 9.08576 6.15502 8.99018 6.25815L0.616192 15.7953C0.324383 16.2681 0.227792 16.749 0.375221 17.0469C0.428716 17.1539 0.507616 17.246 0.605008 17.3154C0.738964 17.3946 0.894257 17.4301 1.04933 17.417C1.19353 17.4172 1.33619 17.3875 1.46832 17.3297C1.60044 17.272 1.71916 17.1874 1.81698 17.0815L9.98558 8.3608L12.501 11.1955C12.6004 11.295 12.7189 11.3734 12.8494 11.426C12.9799 11.4786 13.1196 11.5043 13.2602 11.5015C13.4009 11.4988 13.5395 11.4676 13.6678 11.41C13.7961 11.3523 13.9114 11.2694 14.0068 11.166L20.9065 3.71525L21.1689 5.18955C21.2604 5.70402 21.5593 6.23172 21.9518 6.27442C22.3442 6.31713 22.6767 5.83518 22.7428 5.73758C22.7753 5.16819 22.999 1.02797 22.996 0.970015Z" stroke="#8E8E8E"/>
<path d="M21.4973 20.9086C20.1958 20.8558 18.3179 20.7836 16.0424 20.7144C13.9214 20.6504 12.861 20.6189 12.0771 20.6219C9.21794 20.6321 8.38929 20.8253 5.31055 20.9086C4.31718 20.9351 2.84695 20.9554 1.04018 20.9086C0.768478 20.9171 0.510742 21.031 0.321546 21.2262C0.13235 21.4214 0.0265503 21.6825 0.0265503 21.9544C0.0265503 22.2262 0.13235 22.4874 0.321546 22.6825C0.510742 22.8777 0.768478 22.9916 1.04018 23.0001H21.9569C22.574 22.8893 22.999 22.4104 23.0031 21.9539C23.0041 21.3794 22.3371 20.7653 21.4973 20.9086Z" fill="#8E8E8E"/>
</g>
<defs>
<clipPath id="clip0">
<rect width="23" height="23" fill="white"/>
</clipPath>
</defs>
</svg>
