<svg width="654" height="802" viewBox="0 0 654 802" fill="none" xmlns="http://www.w3.org/2000/svg">
<path fill-rule="evenodd" clip-rule="evenodd" d="M336.94 33.1967C333.956 35.7044 328.746 43.0711 307.332 75.0612C298.809 87.7931 291.843 98.6651 291.851 99.2211C291.86 99.7772 296.299 103.146 301.717 106.708C307.133 110.271 311.462 113.457 311.336 113.788C310.599 115.718 301.948 127.618 301.265 127.641C300.814 127.655 294.172 123.568 286.505 118.558C278.839 113.548 272.129 109.279 271.595 109.072C271.035 108.856 264.702 117.556 256.679 129.562L242.736 150.427L281.021 176.19C335.109 212.587 346.006 219.393 350.195 219.393C352.472 219.393 372.327 232.039 377.793 236.971C381.098 239.954 381.147 240.077 379.964 242.362C378.203 245.764 378.376 246.291 382.444 249.867C384.473 251.65 386.133 253.766 386.133 254.567C386.133 256.065 390.841 260.74 398.121 266.471C400.4 268.264 402.893 270.563 403.66 271.579C405.015 273.374 404.94 273.598 401.041 279.374C395.135 288.125 395.123 288.297 400.107 292.232C402.425 294.061 404.592 295.558 404.923 295.558C405.808 295.558 408.297 292.599 412.721 286.288C414.939 283.125 417.078 280.873 417.654 281.094C419.356 281.746 451.677 304.569 546.197 371.86C575.828 392.955 600.272 410.215 600.515 410.215C600.857 410.215 641.177 350.292 643.914 345.717C644.341 345.002 636.325 339.281 617.623 326.955C540.999 276.448 460.726 222.783 458.08 220.292C457.738 219.971 459.675 216.254 462.385 212.033C465.094 207.812 467.311 203.705 467.311 202.905C467.311 201.345 460.442 195.643 458.564 195.643C457.941 195.643 455.688 198.101 453.557 201.106C451.426 204.111 448.575 207.816 447.222 209.34L444.762 212.112L435.626 206.335C430.602 203.157 425.942 200.557 425.272 200.557C424.602 200.557 423.594 201.109 423.032 201.785C421.397 203.753 418.622 203.222 414.629 200.178L410.911 197.341L408.76 200.587C407.577 202.372 406.181 203.833 405.656 203.833C404.138 203.833 384.49 190.484 379.769 186.244C377.406 184.123 375.474 181.9 375.474 181.304C375.474 179.572 369.129 174.454 354.202 164.145C346.544 158.856 339.869 154.036 339.368 153.433C338.667 152.591 339.415 150.919 342.6 146.205C344.879 142.832 347.475 139.841 348.368 139.557C349.51 139.196 351.771 140.24 355.969 143.067C361.406 146.729 369.822 151.418 370.959 151.418C371.59 151.418 416.477 83.8677 416.455 82.9505C416.446 82.5451 414.969 81.1766 413.173 79.908L409.909 77.6009L407.301 79.4559C404.895 81.1676 404.744 81.1872 405.358 79.7155C406.539 76.8851 406.845 74.4339 406.019 74.4339C405.576 74.4339 404.242 75.198 403.054 76.1317C400.734 77.9539 400.651 77.8663 400.872 73.818C401.065 70.3128 399.096 69.5422 395.928 71.8812L393.54 73.6436L394.049 69.9443C394.534 66.4038 394.467 66.2441 392.495 66.2441C391.362 66.2441 389.975 66.7969 389.413 67.4726C388.852 68.1483 387.836 68.7011 387.156 68.7011C386.197 68.7011 386.025 68.0475 386.392 65.7871C387.227 60.6497 385.36 58.9298 382.444 62.1492C379.958 64.892 378.754 64.2155 378.754 60.0764C378.754 54.9267 377.08 54.346 372.262 57.8242C370.289 59.2476 370.282 59.2443 370.824 57.0929C371.122 55.9037 371.549 54.4353 371.771 53.8309C371.994 53.2256 371.818 52.1782 371.381 51.5025C370.681 50.4223 370.279 50.4468 368.043 51.7072C364.328 53.8014 363.821 53.5385 364.128 49.6778C364.354 46.8409 364.131 46.1603 362.896 45.9179C362.066 45.7549 360.563 46.3953 359.555 47.3413C357.248 49.5058 356.614 48.8736 356.614 44.4044C356.614 40.4389 355.239 39.7788 351.877 42.1309C349.79 43.5903 349.684 43.384 351.016 40.4627C352.568 37.0606 350.801 36.2384 347.642 38.8935L344.994 41.1187L345.587 37.1712C346.1 33.761 346.003 33.2909 344.879 33.7216C344.032 34.0468 343.402 33.6643 343.071 32.6242C342.367 30.4097 339.993 30.6308 336.94 33.1967ZM398.433 105.015C398.433 104.881 384.688 95.6307 367.889 84.459C351.089 73.2865 334.508 62.4285 331.04 60.3286C324.798 56.5507 324.715 56.5269 322.84 58.0167C321.798 58.8438 320.31 60.6128 319.533 61.9469L318.121 64.3727L355.14 89.015L392.159 113.657L395.297 109.458C397.022 107.149 398.433 105.15 398.433 105.015ZM377.322 131.913C376.08 130.871 359.63 119.722 340.766 107.139C321.903 94.5562 305.948 84.2617 305.313 84.2617C304.236 84.2617 300.013 90.0052 300.054 91.4114C300.075 92.0993 360.954 132.755 367.877 136.703C373.296 139.795 374.859 139.757 377.467 136.472L379.579 133.81L377.322 131.913Z" fill="#EDBD31"/>
<path fill-rule="evenodd" clip-rule="evenodd" d="M174.902 232.29C200.963 196.325 215.024 178.221 230.248 161.029C234.542 156.18 238.256 152.311 238.501 152.429C241.65 153.96 328.593 212.906 336.115 218.61C343.078 223.891 350.033 230.952 351.986 234.726C353.595 237.833 357.601 251.714 359.614 261.161C361.894 271.852 361.715 299.186 359.282 311.965C354.576 336.686 346.01 357.895 331.178 381.551C320.322 398.868 293.472 439.028 257.058 492.413L223.616 541.442L227.312 545.237L231.009 549.032L225.78 558.338L220.551 567.642L234.222 583.316C250.979 602.527 266.315 619.612 269.189 622.269L271.336 624.255L273.476 622.269L275.617 620.284L283.841 628.883C298.573 644.288 320.724 668.336 331.775 680.919L342.589 693.236L350.627 692.543C363.861 691.402 370.047 692.056 376.677 695.295C384.23 698.985 391.911 706.198 395.121 712.614C397.999 718.365 398.44 724.904 396.411 731.72C394.604 737.791 376.775 766.123 362.582 785.479C352.852 798.749 347.011 802.18 334.475 801.993C323.21 801.824 319.803 800.101 291.357 780.185C261.347 759.175 223.839 731.336 201.462 713.463C170.47 688.71 131.919 650.124 106.732 618.646C96.4012 605.733 87.998 593.41 77.7885 576.195C66.3596 556.923 59.3119 550.011 42.5638 541.646C32.2559 536.497 22.312 532.762 14.2729 531.018C-5.26227 526.782 -5.04416 522.74 16.7812 484.607C35.4316 452.022 79.0029 379.903 108.236 333.231C125.326 305.946 132.165 295.994 134.005 295.731C134.916 295.601 137.482 296.788 139.708 298.368L143.757 301.243L146.779 296.558C148.442 293.981 154.072 285.239 159.29 277.131L168.778 262.39L165.764 259.933C164.105 258.581 161.911 256.739 160.887 255.838L159.025 254.2L174.902 232.29ZM244.669 183.358C255.573 183.358 258.819 168.922 248.965 164.251C245.532 162.624 244.663 162.602 241.322 164.054C237.66 165.647 235.257 169.408 235.257 173.548C235.257 176.465 235.75 177.491 238.44 180.179C240.995 182.73 242.225 183.358 244.669 183.358ZM259.848 201.609C259.858 199.447 255.621 194.4 252.396 192.735C249.322 191.147 246.836 191.244 243.842 193.067C238.532 196.302 194.258 264.227 194.258 269.14C194.258 271.709 200.337 278.003 203.609 278.822C206.99 279.67 210.833 277.488 214.817 272.458C224.563 260.151 259.834 204.66 259.848 201.609ZM281.179 213.667C279.985 210.787 276.522 207.467 273.538 206.342C270.311 205.123 268.839 205.25 265.982 206.99C260.839 210.122 216.389 278.062 216.403 282.767C216.416 286.814 222.015 292.204 226.881 292.852C232.191 293.558 233.579 291.979 252.224 264.014C264.922 244.971 277.53 224.99 280.31 219.509C281.836 216.5 281.972 215.581 281.179 213.667ZM302.997 227.784C301.428 224.781 297.698 221.336 294.857 220.265L294.824 220.252C293.457 219.736 292.724 219.459 292.003 219.486C291.168 219.517 290.348 219.953 288.58 220.895L288.543 220.915C286.517 221.993 283.233 225.965 277.259 234.559C267.177 249.062 247.754 279.188 241.969 289.292C237.44 297.203 237.365 298.627 241.257 302.802C245.82 307.697 250.972 308.293 255.372 304.435C259.685 300.652 296.386 245.277 302.458 233.389C304.007 230.358 304.059 229.813 302.997 227.784ZM325.705 243.314C324.779 240.685 321.273 236.592 318.893 235.362C314.835 233.266 311.112 233.774 308.04 236.842C303.695 241.181 273.856 286.16 263.233 304.384C259.251 311.216 259.301 312.365 263.789 317.043C267.66 321.078 271.24 322.282 274.444 320.626C278.246 318.663 281.24 314.721 297.156 290.725C316.269 261.91 326.354 245.16 325.705 243.314ZM343.432 272.163C347.85 267.137 346.002 259.19 339.813 256.608C336.375 255.173 335.613 255.176 332.236 256.643C326.566 259.105 324.475 267.088 328.309 271.639C332.732 276.89 339.083 277.111 343.432 272.163ZM132.932 286.864L142.354 271.971L151.777 257.078L156.198 260.143C158.63 261.829 160.624 263.44 160.629 263.723C160.638 264.193 143.067 292.089 142.244 292.911C142.047 293.107 139.872 291.827 137.409 290.065L132.932 286.864ZM267.523 339.16C252.76 329.251 214.157 305.581 205.898 301.372C204.042 300.427 201.983 299.653 201.324 299.653C199.063 299.653 195.15 303.761 194.594 306.718C193.838 310.747 195.915 312.705 212.708 323.794C243.177 343.914 270.695 360.258 274.102 360.258C277.448 360.258 281.176 356.241 281.176 352.635C281.176 349.21 278.369 346.439 267.523 339.16ZM188.104 350.453C193.702 339.382 187.816 326.63 174.874 321.793C168.027 319.234 161.688 319.834 156.386 323.539C151.517 326.943 130.31 358.454 82.3451 433.556C48.6489 486.316 45.6305 492.636 49.9076 501.459C52.2396 506.272 58.4337 511.794 63.5414 513.616C68.335 515.325 76.816 515.486 80.5256 513.938C84.4295 512.309 86.8435 509.194 102.613 485.437C137.021 433.605 181.845 362.83 188.104 350.453ZM129.465 345.925C129.452 342.479 127.866 339.732 124.632 337.556C119.091 333.826 112.467 336.433 109.831 343.382C108.046 348.085 112.227 354.487 117.895 355.73C123.224 356.899 129.486 351.592 129.465 345.925ZM300.62 406.517C308.536 402.189 308.936 393.459 301.426 388.886C295.272 385.138 287.975 389.005 287.159 396.447C286.634 401.227 289.314 405.243 294.154 406.926C297.401 408.057 297.858 408.027 300.62 406.517ZM160.619 541.501C153.844 532.461 134.48 510.184 123.743 499.075C115.594 490.643 115.194 490.329 114.053 491.47C112.064 493.456 113.233 496.029 119.376 503.196C127.578 512.763 144.584 531.431 154.011 541.216C160.949 548.416 161.568 548.865 162.828 547.606C164.087 546.349 163.932 545.92 160.619 541.501ZM33.5834 515.606C36.7567 510.408 34.9749 504.389 29.4105 501.515C25.1139 499.296 21.1624 500.263 17.6906 504.383C12.2517 510.84 16.7943 520.224 25.3033 520.107C29.4261 520.05 31.5876 518.875 33.5834 515.606ZM153.269 560.107C151.772 557.313 133.526 535.801 119.91 520.778C112.899 513.041 106.938 507.159 105.966 507.016C104.429 506.792 103.241 508.16 103.241 510.155C103.241 511.844 126.361 537.986 142.532 554.581C150.614 562.874 152.092 564.063 153.085 563.071C154.006 562.152 154.042 561.55 153.269 560.107ZM144.513 576.304C134.951 563.825 113.855 539.487 102.949 528.353C99.7492 525.088 96.7226 522.416 96.2233 522.416C93.4985 522.416 93.5764 525.922 96.384 529.597C101.343 536.092 133.34 571.293 140.068 577.656C142.442 579.901 142.718 579.977 143.976 578.721C144.921 577.777 145.083 577.049 144.513 576.304ZM234.918 559.933C237.451 555.739 240.314 551.451 241.282 550.402L243.041 548.497L245.505 551.332C258.377 566.154 263.234 571.864 271.229 581.575L280.489 592.824L277.408 597.955C275.714 600.776 273.244 604.687 271.919 606.644L269.509 610.203L265.834 606.644C261.645 602.588 232.926 571.258 231.35 569.026C230.456 567.76 230.95 566.503 234.918 559.933ZM243.285 616.321C219.078 591.071 214.126 586.685 207.412 584.551C203.226 583.221 199.438 582.792 190.158 582.602C177.17 582.336 176.828 582.361 163.099 584.637C141.583 588.204 121.28 598.16 121.28 605.146C121.28 610.627 132.19 623.39 164.735 655.983C202.456 693.759 219.851 708.089 277.486 748.862C317.235 776.982 334.048 786.62 340.525 784.997C347.075 783.355 369.52 753.27 376.036 737.398C380.544 726.417 379.434 719.653 372.262 714.396C366.092 709.872 361.792 708.831 351.683 709.409C346.34 709.714 341.71 709.564 339.743 709.022C335.675 707.9 328.871 701.325 300.638 671.235C280.312 649.572 272.389 641.986 270.088 641.986C268.43 641.986 261.848 635.685 243.285 616.321ZM141.949 617.024C136.691 612.606 136.47 606.263 141.424 601.919C144.858 598.907 149.026 598.576 153.002 600.997C156.242 602.97 157.583 605.382 157.583 609.24C157.583 617.231 147.92 622.042 141.949 617.024ZM350.054 728.24C350.054 724.552 351.668 721.92 355.275 719.722C356.688 718.862 358.693 718.156 359.73 718.155C364.518 718.147 369.725 723.425 369.731 728.292C369.735 731.6 366.934 735.755 363.652 737.311C360.204 738.945 358.791 738.957 355.472 737.384C352.136 735.803 350.054 732.289 350.054 728.24ZM326.5 767.075C325.993 762.586 327.364 759.912 331.444 757.426C334.583 755.515 337.027 755.406 340.183 757.037C348.177 761.166 347.594 772.157 339.212 775.344C333.281 777.599 327.244 773.672 326.5 767.075Z" fill="#A5A4F5"/>
<path fill-rule="evenodd" clip-rule="evenodd" d="M385.723 0.772478C383.919 1.14511 379.648 1.47189 376.231 1.49727C375.913 1.49972 375.609 1.50078 375.319 1.50179C373.36 1.50861 372.019 1.51329 370.819 1.92839C368.21 2.83146 366.275 5.67705 360.131 14.7133L360.095 14.7651C359.688 15.3637 359.263 15.9895 358.817 16.6435L351.046 28.0568L365.515 37.8673C388.746 53.6179 414.614 70.0376 415.2 69.4037C416.124 68.4054 429.616 47.3249 430.767 45.0809C432.141 42.4045 432.127 42.2792 430.123 39.348C428.995 37.6994 427.622 34.0107 427.07 31.1492C426.468 28.0297 425.289 25.0257 424.126 23.6441C422.133 21.2789 390.881 -0.168529 389.675 0.000999601C389.305 0.0525953 387.527 0.399842 385.723 0.772478ZM396.422 36.6863C399.028 31.6537 397.174 26.3336 392.151 24.4262C389.427 23.3919 388.591 23.4549 385.801 24.9078C382.439 26.6596 381.269 28.5064 381.24 32.1148C381.209 35.697 384.372 39.5642 388.094 40.4971C391.075 41.2448 394.989 39.4537 396.422 36.6863Z" fill="#A5A4F5"/>
<path d="M649.094 353.334C636.281 370.914 607.28 412.728 607.681 413.045C608.483 413.68 613.779 415.129 615.297 415.129C617.914 415.129 619.239 413.407 633.561 391.379C654.179 359.668 655.546 357.005 653.108 353.291C651.452 350.766 650.962 350.772 649.094 353.334Z" fill="#A5A4F5"/>
<path fill-rule="evenodd" clip-rule="evenodd" d="M142.354 271.971L132.932 286.864L137.409 290.065C139.872 291.827 142.047 293.107 142.244 292.911C143.067 292.089 160.638 264.193 160.629 263.723C160.624 263.44 158.63 261.829 156.198 260.143L151.777 257.078L142.354 271.971ZM241.282 550.402C240.314 551.451 237.451 555.739 234.918 559.933C230.95 566.503 230.456 567.76 231.35 569.026C232.926 571.258 261.645 602.588 265.834 606.644L269.509 610.203L271.919 606.644C273.244 604.687 275.714 600.776 277.408 597.955L280.489 592.824L271.229 581.575C263.234 571.864 258.377 566.154 245.505 551.332L243.041 548.497L241.282 550.402ZM141.424 601.919C136.47 606.263 136.691 612.606 141.949 617.024C147.92 622.042 157.583 617.231 157.583 609.24C157.583 605.382 156.242 602.97 153.002 600.997C149.026 598.576 144.858 598.907 141.424 601.919ZM355.275 719.722C351.668 721.92 350.054 724.552 350.054 728.24C350.054 732.289 352.136 735.803 355.472 737.384C358.791 738.957 360.204 738.945 363.652 737.311C366.934 735.755 369.735 731.6 369.731 728.292C369.725 723.425 364.518 718.147 359.73 718.155C358.693 718.156 356.688 718.862 355.275 719.722ZM331.444 757.426C327.364 759.912 325.993 762.586 326.5 767.075C327.244 773.672 333.281 777.599 339.212 775.344C347.594 772.157 348.177 761.166 340.183 757.037C337.027 755.406 334.583 755.515 331.444 757.426Z" fill="#EDBD31"/>
</svg>
