<svg width="34" height="38" viewBox="0 0 34 38" fill="none" xmlns="http://www.w3.org/2000/svg">
<g clip-path="url(#clip0)">
<path d="M17 37.9999C18.1022 37.9991 19.1803 37.6766 20.1024 37.072C21.0244 36.4674 21.7505 35.6068 22.1917 34.5955H11.8074C12.2493 35.6065 12.9756 36.4668 13.8977 37.0714C14.8198 37.6759 15.8978 37.9986 17 37.9999Z" fill="white" fill-opacity="0.47"/>
<path d="M28.7142 18.7509V16.2649C28.7107 13.7495 27.9008 11.3017 26.4038 9.28164C24.9069 7.26158 22.8018 5.77599 20.3985 5.04347V3.40443C20.3985 2.50152 20.0402 1.63559 19.4026 0.997136C18.7649 0.35868 17.9001 0 16.9983 0C16.0965 0 15.2316 0.35868 14.594 0.997136C13.9563 1.63559 13.5981 2.50152 13.5981 3.40443V5.04347C11.1955 5.77667 9.09137 7.26258 7.59525 9.2826C6.09913 11.3026 5.29001 13.7501 5.28694 16.2649V18.7509C5.29534 23.3695 3.51233 27.811 0.313782 31.1389C0.159029 31.2993 0.0548937 31.5017 0.0143867 31.721C-0.0261204 31.9402 -0.00120358 32.1666 0.0860243 32.3717C0.173252 32.5769 0.318924 32.7517 0.504839 32.8745C0.690754 32.9972 0.90867 33.0624 1.13136 33.0618H32.8652C33.0878 33.0621 33.3055 32.9969 33.4913 32.8741C33.6771 32.7514 33.8227 32.5766 33.9099 32.3716C33.9972 32.1666 34.0223 31.9404 33.982 31.7212C33.9418 31.502 33.838 31.2995 33.6837 31.1389C30.4865 27.8104 28.7048 23.369 28.7142 18.7509ZM18.1314 4.59388C17.7582 4.55817 17.3805 4.53894 16.9983 4.53894C16.616 4.53894 16.2374 4.55817 15.8652 4.59388V3.40352C15.8652 3.10263 15.9846 2.81406 16.1971 2.6013C16.4095 2.38854 16.6978 2.26901 16.9983 2.26901C17.2988 2.26901 17.587 2.38854 17.7995 2.6013C18.012 2.81406 18.1314 3.10263 18.1314 3.40352V4.59388Z" fill="white" fill-opacity="0.47"/>
</g>
<defs>
<clipPath id="clip0">
<rect width="34" height="38" fill="white"/>
</clipPath>
</defs>
</svg>
