<svg width="23" height="23" viewBox="0 0 23 23" fill="none" xmlns="http://www.w3.org/2000/svg">
<g clip-path="url(#clip0)">
<path d="M8.53176 16.6329C5.57315 16.6329 3.16766 13.6984 3.16766 10.0975C3.16766 8.13687 3.46352 6.72303 4.07133 5.76861C4.96213 4.36447 6.58937 3.55887 8.53176 3.55887C9.42887 3.53214 10.3168 3.74648 11.1042 4.17981C11.8916 4.61313 12.55 5.24978 13.0115 6.02419C13.7833 7.33774 13.8991 9.13983 13.8991 10.0975C13.8991 13.6984 11.4904 16.6329 8.53176 16.6329ZM8.53176 5.8236C7.98506 5.8236 6.63439 5.94008 5.95905 6.98832C5.70821 7.3798 5.41235 8.23717 5.41235 10.0975C5.41235 12.4496 6.80804 14.3681 8.52533 14.3681C10.2426 14.3681 11.6415 12.4496 11.6415 10.0975C11.6415 8.881 11.4261 7.78746 11.0659 7.18568C10.801 6.75338 10.4269 6.39952 9.98172 6.16023C9.53652 5.92093 9.03617 5.80477 8.53176 5.8236Z" fill="black"/>
<path d="M19.0702 2.46214C18.6088 1.68858 17.9508 1.0527 17.164 0.619956C16.3772 0.18721 15.49 -0.0267662 14.5937 4.56905e-05C13.4229 -0.0249197 12.2729 0.31402 11.3006 0.970646C11.1246 1.0951 10.958 1.23243 10.8021 1.38153L10.6381 1.54977C10.5931 1.5983 10.5513 1.65007 10.5063 1.70183C11.2091 1.82078 11.897 2.01604 12.558 2.28419H12.5773C12.7814 2.33355 12.9766 2.4143 13.1562 2.5236C13.614 2.34317 14.102 2.2531 14.5937 2.25831C15.0979 2.23688 15.5986 2.35085 16.0445 2.58852C16.4904 2.82619 16.8654 3.17898 17.131 3.61068C17.4912 4.22215 17.7066 5.31246 17.7066 6.52248C17.7066 8.03338 17.131 9.35664 16.2659 10.1169C16.2402 10.9225 16.2081 11.7346 16.1759 12.5402C16.1724 12.6183 16.1638 12.6962 16.1502 12.7731C18.3498 11.9611 19.9578 9.46663 19.9578 6.52248C19.9578 5.57776 19.842 3.77568 19.0702 2.46214Z" fill="black"/>
<path d="M12.4422 18.6323C11.213 18.3305 9.95138 18.1828 8.6861 18.1923H8.53173H8.50601H8.35486C7.08956 18.1826 5.82793 18.3304 4.59871 18.6323C2.51481 19.2018 -0.0932664 20.6383 0.00321009 21.9324C0.019535 22.1125 0.0742319 22.2869 0.163577 22.4437C0.252923 22.6006 0.374819 22.7363 0.520967 22.8415C0.990487 23.1651 1.60472 22.9515 1.77195 22.8965C2.18358 22.7639 2.32186 22.573 2.80424 22.2106C3.22991 21.9224 3.67354 21.6619 4.1324 21.4309C5.11767 20.9585 6.18011 20.6701 7.26789 20.58C7.62164 20.5444 8.04935 20.4991 8.51887 20.483C8.98839 20.4668 9.4161 20.5444 9.77307 20.58C10.8599 20.6695 11.9214 20.9579 12.9053 21.4309C13.3642 21.6619 13.8078 21.9224 14.2335 22.2106C14.7191 22.5665 14.8574 22.7639 15.2658 22.8965C15.4665 22.9787 15.6824 23.0164 15.8989 23.0069C16.1153 22.9974 16.3272 22.941 16.52 22.8415C16.6657 22.7358 16.7873 22.6001 16.8765 22.4433C16.9658 22.2865 17.0208 22.1123 17.0377 21.9324C17.1342 20.6383 14.5229 19.2018 12.4422 18.6323Z" fill="black"/>
<path d="M13.6096 16.9241C14.3191 16.8861 15.0305 16.9121 15.7353 17.0018C16.8275 17.0656 17.8949 17.3552 18.8708 17.8526C19.3315 18.0821 19.7763 18.3426 20.2022 18.6324C20.6878 18.9882 20.8261 19.1824 21.2345 19.3183C21.4351 19.4004 21.6511 19.4381 21.8675 19.4286C22.084 19.4191 22.2959 19.3627 22.4887 19.2632C22.6345 19.1577 22.7562 19.022 22.8455 18.8652C22.9348 18.7083 22.9897 18.5341 23.0064 18.3541C23.0997 17.0923 20.6428 15.575 18.4109 15.0638C17.3782 14.8626 16.3344 14.7243 15.2851 14.6497" fill="black"/>
</g>
<defs>
<clipPath id="clip0">
<rect width="23" height="23" fill="white"/>
</clipPath>
</defs>
</svg>
