<svg width="38" height="38" viewBox="0 0 38 38" fill="none" xmlns="http://www.w3.org/2000/svg">
<path d="M37.1539 15.7789L32.7082 14.6879C32.462 13.9055 32.1491 13.1457 31.773 12.4168L34.0441 8.63164C34.1739 8.42047 34.2291 8.17186 34.2008 7.92561C34.1726 7.67937 34.0625 7.44972 33.8883 7.27344L30.7266 4.11172C30.5503 3.93748 30.3206 3.82743 30.0744 3.79917C29.8281 3.77091 29.5795 3.82608 29.3684 3.95586L25.5832 6.22695C24.8543 5.85085 24.0945 5.53799 23.3121 5.2918L22.2434 0.846094C22.1787 0.605332 22.0371 0.392317 21.8402 0.239552C21.6432 0.0867859 21.4016 0.00265667 21.1523 0H16.6992C16.45 0.00265667 16.2084 0.0867859 16.0114 0.239552C15.8144 0.392317 15.6728 0.605332 15.6082 0.846094L14.5395 5.2918C13.7571 5.53799 12.9973 5.85085 12.2684 6.22695L8.4832 3.95586C8.27203 3.82608 8.02342 3.77091 7.77718 3.79917C7.53093 3.82743 7.30129 3.93748 7.125 4.11172L3.96328 7.27344C3.78904 7.44972 3.67899 7.67937 3.65073 7.92561C3.62247 8.17186 3.67765 8.42047 3.80742 8.63164L6.07852 12.4168C5.70242 13.1457 5.38955 13.9055 5.14336 14.6879L0.846094 15.7789C0.605251 15.8356 0.390633 15.972 0.237052 16.166C0.0834713 16.36 -6.27068e-05 16.6002 3.53183e-08 16.8477V21.3008C-6.27068e-05 21.5482 0.0834713 21.7884 0.237052 21.9824C0.390633 22.1764 0.605251 22.3128 0.846094 22.3695L5.14336 23.4605C5.38955 24.2429 5.70242 25.0027 6.07852 25.7316L3.80742 29.5168C3.67765 29.728 3.62247 29.9766 3.65073 30.2228C3.67899 30.4691 3.78904 30.6987 3.96328 30.875L7.125 34.0367C7.30129 34.211 7.53093 34.321 7.77718 34.3493C8.02342 34.3775 8.27203 34.3224 8.4832 34.1926L12.2684 31.9215C12.9973 32.2976 13.7571 32.6105 14.5395 32.8566L15.6082 37.1539C15.6728 37.3947 15.8144 37.6077 16.0114 37.7604C16.2084 37.9132 16.45 37.9973 16.6992 38H21.1523C21.4016 37.9973 21.6432 37.9132 21.8402 37.7604C22.0371 37.6077 22.1787 37.3947 22.2434 37.1539L23.3121 32.8566C24.0945 32.6105 24.8543 32.2976 25.5832 31.9215L29.3684 34.1926C29.5795 34.3224 29.8281 34.3775 30.0744 34.3493C30.3206 34.321 30.5503 34.211 30.7266 34.0367L33.8883 30.875C34.0625 30.6987 34.1726 30.4691 34.2008 30.2228C34.2291 29.9766 34.1739 29.728 34.0441 29.5168L31.773 25.7316C32.1491 25.0027 32.462 24.2429 32.7082 23.4605L37.1539 22.3695C37.3947 22.3128 37.6094 22.1764 37.7629 21.9824C37.9165 21.7884 38.0001 21.5482 38 21.3008V16.8477C38.0001 16.6002 37.9165 16.36 37.7629 16.166C37.6094 15.972 37.3947 15.8356 37.1539 15.7789ZM18.9258 24.6406C17.8249 24.6406 16.7486 24.3142 15.8333 23.7025C14.9179 23.0909 14.2044 22.2215 13.7831 21.2044C13.3618 20.1873 13.2516 19.068 13.4663 17.9883C13.6811 16.9085 14.2113 15.9167 14.9897 15.1382C15.7682 14.3597 16.7601 13.8295 17.8398 13.6148C18.9196 13.4 20.0388 13.5102 21.056 13.9315C22.0731 14.3528 22.9424 15.0663 23.5541 15.9817C24.1657 16.8971 24.4922 17.9733 24.4922 19.0742C24.4922 20.5505 23.9057 21.9664 22.8618 23.0103C21.8179 24.0542 20.4021 24.6406 18.9258 24.6406Z" fill="#9C9C9C"/>
</svg>
